<?xml version="1.0" encoding="utf-8"?>
<svg id="master-artboard" viewBox="0 0 1400 980" version="1.1" xmlns="http://www.w3.org/2000/svg" x="0px" y="0px" style="enable-background:new 0 0 336 235.2;" width="1400px" height="980px"><defs><path id="text-path-0" d="M 778.8464965820312 213.4612274169922 A 100 18 0 0 1 988.3533935546875 213.4612274169922 A 100 18 0 0 1 778.8464965820312 213.4612274169922 Z" style="fill: none; stroke: red; stroke-width: 2;"/><path id="text-path-1" d="M 664.5464477539062 37.96122741699219 A 100 19 0 0 1 876.5812377929688 37.96122741699219 A 100 19 0 0 1 664.5464477539062 37.96122741699219" style="fill: none; stroke: red; stroke-width: 2;"/><path id="text-path-2" d="M 765.3650512695312 211.70851135253906 A 100 17 0 0 1 991.5017700195312 211.70851135253906 A 100 17 0 0 1 765.3650512695312 211.70851135253906" style="fill: none; stroke: red; stroke-width: 2;"/><path id="path-1" d="M 765.3650512695312 211.70851135253906 A 100 17 0 0 1 991.5017700195312 211.70851135253906 A 100 17 0 0 1 765.3650512695312 211.70851135253906" style="fill: none; stroke: red; stroke-width: 2;"/><path id="path-2" d="M 778.8464965820312 213.4612274169922 A 100 18 0 0 1 988.3533935546875 213.4612274169922 A 100 18 0 0 1 778.8464965820312 213.4612274169922 Z" style="fill: none; stroke: red; stroke-width: 2;"/><path id="path-3" d="M 664.5464477539062 37.96122741699219 A 100 19 0 0 1 876.5812377929688 37.96122741699219 A 100 19 0 0 1 664.5464477539062 37.96122741699219" style="fill: none; stroke: red; stroke-width: 2;"/><path id="path-4" d="M 765.3650512695312 211.70851135253906 A 100 17 0 0 1 991.5017700195312 211.70851135253906 A 100 17 0 0 1 765.3650512695312 211.70851135253906" style="fill: none; stroke: red; stroke-width: 2;"/><path id="path-5" d="M 765.3650512695312 211.70851135253906 A 100 17 0 0 1 991.5017700195312 211.70851135253906 A 100 17 0 0 1 765.3650512695312 211.70851135253906" style="fill: none; stroke: red; stroke-width: 2;"/><path id="path-10" d="M 778.8464965820312 213.4612274169922 A 100 18 0 0 1 988.3533935546875 213.4612274169922 A 100 18 0 0 1 778.8464965820312 213.4612274169922 Z" style="fill: none; stroke: red; stroke-width: 2;"/><path id="path-11" d="M 664.5464477539062 37.96122741699219 A 100 19 0 0 1 876.5812377929688 37.96122741699219 A 100 19 0 0 1 664.5464477539062 37.96122741699219" style="fill: none; stroke: red; stroke-width: 2;"/><path id="path-12" d="M 765.3650512695312 211.70851135253906 A 100 17 0 0 1 991.5017700195312 211.70851135253906 A 100 17 0 0 1 765.3650512695312 211.70851135253906" style="fill: none; stroke: red; stroke-width: 2;"/><path id="path-13" d="M 765.3650512695312 211.70851135253906 A 100 17 0 0 1 991.5017700195312 211.70851135253906 A 100 17 0 0 1 765.3650512695312 211.70851135253906" style="fill: none; stroke: red; stroke-width: 2;"/><path id="path-14" d="M 778.8464965820312 213.4612274169922 A 100 18 0 0 1 988.3533935546875 213.4612274169922 A 100 18 0 0 1 778.8464965820312 213.4612274169922 Z" style="fill: none; stroke: red; stroke-width: 2;"/><path id="path-15" d="M 664.5464477539062 37.96122741699219 A 100 19 0 0 1 876.5812377929688 37.96122741699219 A 100 19 0 0 1 664.5464477539062 37.96122741699219" style="fill: none; stroke: red; stroke-width: 2;"/><path id="path-16" d="M 765.3650512695312 211.70851135253906 A 100 17 0 0 1 991.5017700195312 211.70851135253906 A 100 17 0 0 1 765.3650512695312 211.70851135253906" style="fill: none; stroke: red; stroke-width: 2;"/><path id="path-17" d="M 765.3650512695312 211.70851135253906 A 100 17 0 0 1 991.5017700195312 211.70851135253906 A 100 17 0 0 1 765.3650512695312 211.70851135253906" style="fill: none; stroke: red; stroke-width: 2;"/><path id="path-6" d="M 778.8464965820312 213.4612274169922 A 100 18 0 0 1 988.3533935546875 213.4612274169922 A 100 18 0 0 1 778.8464965820312 213.4612274169922 Z" style="fill: none; stroke: red; stroke-width: 2;"/><path id="path-7" d="M 664.5464477539062 37.96122741699219 A 100 19 0 0 1 876.5812377929688 37.96122741699219 A 100 19 0 0 1 664.5464477539062 37.96122741699219" style="fill: none; stroke: red; stroke-width: 2;"/><path id="path-8" d="M 765.3650512695312 211.70851135253906 A 100 17 0 0 1 991.5017700195312 211.70851135253906 A 100 17 0 0 1 765.3650512695312 211.70851135253906" style="fill: none; stroke: red; stroke-width: 2;"/><path id="path-9" d="M 765.3650512695312 211.70851135253906 A 100 17 0 0 1 991.5017700195312 211.70851135253906 A 100 17 0 0 1 765.3650512695312 211.70851135253906" style="fill: none; stroke: red; stroke-width: 2;"/><path id="path-18" d="M 778.8464965820312 213.4612274169922 A 100 18 0 0 1 988.3533935546875 213.4612274169922 A 100 18 0 0 1 778.8464965820312 213.4612274169922 Z" style="fill: none; stroke: red; stroke-width: 2;"/><path id="path-19" d="M 664.5464477539062 37.96122741699219 A 100 19 0 0 1 876.5812377929688 37.96122741699219 A 100 19 0 0 1 664.5464477539062 37.96122741699219" style="fill: none; stroke: red; stroke-width: 2;"/><path id="path-20" d="M 765.3650512695312 211.70851135253906 A 100 17 0 0 1 991.5017700195312 211.70851135253906 A 100 17 0 0 1 765.3650512695312 211.70851135253906" style="fill: none; stroke: red; stroke-width: 2;"/><path id="path-21" d="M 765.3650512695312 211.70851135253906 A 100 17 0 0 1 991.5017700195312 211.70851135253906 A 100 17 0 0 1 765.3650512695312 211.70851135253906" style="fill: none; stroke: red; stroke-width: 2;"/></defs><rect id="ee-background" x="0" y="0" width="1400" height="980" style="fill: white; fill-opacity: 0; pointer-events: none;"/>














<g transform="matrix(1, 0, 0, 1, 0.00004602325952873798, -0.0000075059483606310096)"><rect id="rect-2" x="0" y="0" width="1400" height="980" style="fill: white; fill-opacity: 0; pointer-events: none;"/><g transform="matrix(1.9815165996551516, 0, 0, 1.9815165996551516, -692.2553100585935, -480.9390869140625)"><g transform="matrix(1, 0, 0, 1, 4.618527782440651e-13, -8.526512829121202e-14)"><g transform="matrix(1, 0, 0, 1, 1.1368683772161603e-13, 0)"><g transform="matrix(1, 0, 0, 1, 2.3092638912203256e-13, -2.842170943040401e-14)"><g transform="matrix(1, 0, 0, 1, 1.2665424264923786e-12, -2.8421709430404007e-13)"><g transform="matrix(4.899999141693115, 0, 0, 4.899999141693115, -2503.799560546875, 19.600021362304688)"><g id="g-1" transform="matrix(1, 0, 0, 1, 0, 0)">
	<g id="g-2">
		<path class="st0" d="M652,46c27.6,0,50,22.4,50,50s-22.4,50-50,50s-50-22.4-50-50S624.4,46,652,46z" style="fill: rgb(154, 130, 109);"/>
	</g>
</g></g></g></g></g></g></g><g transform="matrix(1.191344976425171, 0, 0, 1.191344976425171, 363.30258178710943, 187.043212890625)"><g>
</g><g>
</g><g>
</g><g>
</g><g>
</g><g>
</g><g>
</g><g>
</g><g>
</g><g>
</g><g>
</g><g>
</g><g>
</g><g>
</g><g>
</g></g><g transform="matrix(1.9140625000000002, 0, 0, 1.9140625000000002, 210.00003051757824, 0)">
</g><g transform="matrix(1.9140625000000002, 0, 0, 1.9140625000000002, 210.00003051757824, 0)">
</g><g transform="matrix(1.9140625000000002, 0, 0, 1.9140625000000002, 210.00003051757824, 0)">
</g><g transform="matrix(1.9140625000000002, 0, 0, 1.9140625000000002, 210.00003051757824, 0)">
</g><g transform="matrix(1.9140625000000002, 0, 0, 1.9140625000000002, 210.00003051757824, 0)">
</g><g transform="matrix(1.9140625000000002, 0, 0, 1.9140625000000002, 210.00003051757824, 0)">
</g><g transform="matrix(1.9140625000000002, 0, 0, 1.9140625000000002, 210.00003051757824, 0)">
</g><g transform="matrix(1.9140625000000002, 0, 0, 1.9140625000000002, 210.00003051757824, 0)">
</g><g transform="matrix(1.9140625000000002, 0, 0, 1.9140625000000002, 210.00003051757824, 0)">
</g><g transform="matrix(1.9140625000000002, 0, 0, 1.9140625000000002, 210.00003051757824, 0)">
</g><g transform="matrix(1.9140625000000002, 0, 0, 1.9140625000000002, 210.00003051757824, 0)">
</g><g transform="matrix(1.9140625000000002, 0, 0, 1.9140625000000002, 210.00003051757824, 0)">
</g><g transform="matrix(1.9140625000000002, 0, 0, 1.9140625000000002, 210.00003051757824, 0)">
</g><g transform="matrix(1.9140625000000002, 0, 0, 1.9140625000000002, 210.00003051757824, 0)">
</g><g transform="matrix(1.9140625000000002, 0, 0, 1.9140625000000002, 210.00003051757824, 0)">
</g><g transform="matrix(1.9140625000000002, 0, 0, 1.9140625000000002, 210.00003051757824, 0)">
</g><g transform="matrix(1.9140625000000002, 0, 0, 1.9140625000000002, 210.00003051757824, 0)">
</g><g transform="matrix(1.9140625000000002, 0, 0, 1.9140625000000002, 210.00003051757824, 0)">
</g><g transform="matrix(1.9140625000000002, 0, 0, 1.9140625000000002, 210.00003051757824, 0)">
</g><g transform="matrix(1.9140625000000002, 0, 0, 1.9140625000000002, 210.00003051757824, 0)">
</g><g transform="matrix(1.9140625000000002, 0, 0, 1.9140625000000002, 210.00003051757824, 0)">
</g><g transform="matrix(1.9140625000000002, 0, 0, 1.9140625000000002, 210.00003051757824, 0)">
</g><g transform="matrix(1.9140625000000002, 0, 0, 1.9140625000000002, 210.00003051757824, 0)">
</g><g transform="matrix(1.9140625000000002, 0, 0, 1.9140625000000002, 210.00003051757824, 0)">
</g><g transform="matrix(1.9140625000000002, 0, 0, 1.9140625000000002, 210.00003051757824, 0)">
</g><g transform="matrix(1.9140625000000002, 0, 0, 1.9140625000000002, 210.00003051757824, 0)">
</g><g transform="matrix(1.9140625000000002, 0, 0, 1.9140625000000002, 210.00003051757824, 0)">
</g><g transform="matrix(1.9140625000000002, 0, 0, 1.9140625000000002, 210.00003051757824, 0)">
</g><g transform="matrix(1.9140625000000002, 0, 0, 1.9140625000000002, 210.00003051757824, 0)">
</g><g transform="matrix(1.9140625000000002, 0, 0, 1.9140625000000002, 210.00003051757824, 0)">
</g><g transform="matrix(1.925343811394892, 0, 0, 1.925343811394892, 210.00003057753202, 0)"><g>
</g><g>
</g><g>
</g><g>
</g><g>
</g><g>
</g><g>
</g><g>
</g><g>
</g><g>
</g><g>
</g><g>
</g><g>
</g><g>
</g><g>
</g></g><g transform="matrix(1.0559514760971067, 0, 0, 1.0559514760971067, -37.48319625854492, -51.78708241107846)"><g transform="matrix(1, 0, 0, 1, 1.1368683772161603e-13, 2.842170943040401e-14)"><g transform="matrix(1, 0, 0, 1, 1.1368683772161603e-13, 2.842170943040401e-14)"><g transform="matrix(1, 0, 0, 1, 1.1368683772161603e-13, 2.842170943040401e-14)"><g transform="matrix(1, 0, 0, 1, 1.1368683772161603e-13, 2.842170943040401e-14)"><g transform="matrix(1, 0, 0, 1, 1.1368683772161603e-13, 2.842170943040401e-14)"><g transform="matrix(1, 0, 0, 1, 1.1368683772161603e-13, 2.842170943040401e-14)"><g transform="matrix(1, 0, 0, 1, 1.1368683772161603e-13, 2.842170943040401e-14)"><g transform="matrix(1, 0, 0, 1, 1.1368683772161603e-13, 2.842170943040401e-14)"><g transform="matrix(1, 0, 0, 1, 1.1368683772161603e-13, 2.842170943040401e-14)"><g transform="matrix(0.5028621554374695, 0, 0, 0.5028621554374695, 336.4459228515626, 271.5854187011719)"><path d="M 0 0 H 1400 V 980 H 0 V 0 Z" id="rect-1" style="fill: white; fill-opacity: 0; pointer-events: none;"/><path style="fill: rgb(63, 61, 61); fill-opacity: 1; stroke: rgb(0, 0, 0); stroke-opacity: 1; stroke-width: 0; paint-order: fill;"/><path style="fill: rgb(63, 61, 61); fill-opacity: 1; stroke: rgb(0, 0, 0); stroke-opacity: 1; stroke-width: 0; paint-order: fill;"/><path d="M 880.3870239257812 239.90606689453125" style="fill: rgb(63, 61, 61); fill-opacity: 1; stroke: rgb(0, 0, 0); stroke-opacity: 1; stroke-width: 0; paint-order: fill;"/><path d="M 864.144775390625 229.48651123046875" style="fill: rgb(63, 61, 61); fill-opacity: 1; stroke: rgb(0, 0, 0); stroke-opacity: 1; stroke-width: 0; paint-order: fill;"/><path style="fill: rgb(63, 61, 61); fill-opacity: 1; stroke: rgb(0, 0, 0); stroke-opacity: 1; stroke-width: 0; paint-order: fill;"/><path style="fill: rgb(63, 61, 61); fill-opacity: 1; stroke: rgb(0, 0, 0); stroke-opacity: 1; stroke-width: 0; paint-order: fill;"/><path style="fill: rgb(63, 61, 61); fill-opacity: 1; stroke: rgb(0, 0, 0); stroke-opacity: 1; stroke-width: 0; paint-order: fill;"/><path style="fill: rgb(63, 61, 61); fill-opacity: 1; stroke: rgb(0, 0, 0); stroke-opacity: 1; stroke-width: 0; paint-order: fill;"/><path style="fill:#F1F3F7;" d="M463.5,278.4c-0.7-7.2-5.4-13.4-12.2-16l-25.4-10c-3.8-1.5-7.1-4.2-9.3-7.7l-37-58.9&#10;&#9;c-3.5-5.6-9.7-9.1-16.4-9.1h-59.6v141.4h164L463.5,278.4z" transform="matrix(3.132804402381898, 0, 0, 3.132804402381898, -114.1235162466877, -307.32527117424326)"/><path style="fill: rgb(100, 107, 121);" d="M399.9,250l-34.7-55.2c-0.4-0.7-1.2-1.1-2-1.1h-42.6V250H399.9z" transform="matrix(3.132804402381898, 0, 0, 3.132804402381898, -114.1235162466877, -307.32527117424326)"/><path style="fill:#DEDEDF;" d="M470.6,318h-167v37.8h167.1c4.6,0,8.3-3.7,8.3-8.3v-21.2C479,321.8,475.2,318,470.6,318z" transform="matrix(3.132804402381898, 0, 0, 3.132804402381898, -114.1235162466877, -307.32527117424326)"/><path style="fill: rgb(248, 84, 91);" d="M289.6,119.2H53.7c-7.7,0-14,6.3-14,14v222.6h263.8V133.2C303.6,125.5,297.3,119.2,289.6,119.2z" transform="matrix(3.132804402381898, 0, 0, 3.132804402381898, -114.1235162466877, -307.32527117424326)"/><path d="M 39.700001 318 H 303.499989 V 355.799999 H 39.700001 V 318 Z" style="fill:#DEDEDF;" transform="matrix(3.132804402381898, 0, 0, 3.132804402381898, -114.1235162466877, -307.32527117424326)"/><g transform="matrix(3.132804402381898, 0, 0, 3.132804402381898, -114.1235162466877, -307.32527117424326)">
	<path style="fill:#333842;" d="M190.8,354.3c0-26.8-21.7-48.4-48.4-48.4S94,327.6,94,354.3c0,0.5,0.1,1,0.1,1.5h96.7&#10;&#9;&#9;C190.8,355.3,190.8,354.8,190.8,354.3z"/>
	<path style="fill:#333842;" d="M388.6,305.9c-26.8,0-48.4,21.7-48.4,48.4c0,0.5,0.1,1,0.1,1.5H437c0-0.5,0.1-1,0.1-1.5&#10;&#9;&#9;C437.1,327.6,415.4,305.9,388.6,305.9z"/>
</g><path d="M 430.200005 354.299988 A 41.599998 41.599998 0 0 1 388.600006 395.899986 A 41.599998 41.599998 0 0 1 347.000008 354.299988 A 41.599998 41.599998 0 0 1 388.600006 312.699989 A 41.599998 41.599998 0 0 1 430.200005 354.299988 Z" style="fill:#414753;" transform="matrix(3.132804402381898, 0, 0, 3.132804402381898, -114.1235162466877, -307.32527117424326)"/><path d="M 411.700006 354.299988 A 23.1 23.1 0 0 1 388.600006 377.399988 A 23.1 23.1 0 0 1 365.500006 354.299988 A 23.1 23.1 0 0 1 388.600006 331.199987 A 23.1 23.1 0 0 1 411.700006 354.299988 Z" style="fill:#646B79;" transform="matrix(3.132804402381898, 0, 0, 3.132804402381898, -114.1235162466877, -307.32527117424326)"/><path d="M 183.999992 354.299988 A 41.599998 41.599998 0 0 1 142.399994 395.899986 A 41.599998 41.599998 0 0 1 100.799995 354.299988 A 41.599998 41.599998 0 0 1 142.399994 312.699989 A 41.599998 41.599998 0 0 1 183.999992 354.299988 Z" style="fill:#414753;" transform="matrix(3.132804402381898, 0, 0, 3.132804402381898, -114.1235162466877, -307.32527117424326)"/><path d="M 165.499994 354.299988 A 23.1 23.1 0 0 1 142.399994 377.399988 A 23.1 23.1 0 0 1 119.299994 354.299988 A 23.1 23.1 0 0 1 142.399994 331.199987 A 23.1 23.1 0 0 1 165.499994 354.299988 Z" style="fill:#646B79;" transform="matrix(3.132804402381898, 0, 0, 3.132804402381898, -114.1235162466877, -307.32527117424326)"/><g transform="matrix(1.9253437519073486, 0, 0, 1.9253437519073486, 209.99998474121094, 0)">
</g><g transform="matrix(1.9253437519073486, 0, 0, 1.9253437519073486, 209.99998474121094, 0)">
</g><g transform="matrix(1.9253437519073486, 0, 0, 1.9253437519073486, 209.99998474121094, 0)">
</g><g transform="matrix(1.9253437519073486, 0, 0, 1.9253437519073486, 209.99998474121094, 0)">
</g><g transform="matrix(1.9253437519073486, 0, 0, 1.9253437519073486, 209.99998474121094, 0)">
</g><g transform="matrix(1.9253437519073486, 0, 0, 1.9253437519073486, 209.99998474121094, 0)">
</g><g transform="matrix(1.9253437519073486, 0, 0, 1.9253437519073486, 209.99998474121094, 0)">
</g><g transform="matrix(1.9253437519073486, 0, 0, 1.9253437519073486, 209.99998474121094, 0)">
</g><g transform="matrix(1.9253437519073486, 0, 0, 1.9253437519073486, 209.99998474121094, 0)">
</g><g transform="matrix(1.9253437519073486, 0, 0, 1.9253437519073486, 209.99998474121094, 0)">
</g><g transform="matrix(1.9253437519073486, 0, 0, 1.9253437519073486, 209.99998474121094, 0)">
</g><g transform="matrix(1.9253437519073486, 0, 0, 1.9253437519073486, 209.99998474121094, 0)">
</g><g transform="matrix(1.9253437519073486, 0, 0, 1.9253437519073486, 209.99998474121094, 0)">
</g><g transform="matrix(1.9253437519073486, 0, 0, 1.9253437519073486, 209.99998474121094, 0)">
</g><g transform="matrix(1.9253437519073486, 0, 0, 1.9253437519073486, 209.99998474121094, 0)">
</g></g></g></g></g></g></g></g></g></g></g></g></g></svg>